<?xml version="1.0" encoding="utf-8"?>
<!-- Generator: Adobe Illustrator 19.0.0, SVG Export Plug-In . SVG Version: 6.00 Build 0)  -->
<svg version="1.1" id="Layer_1" xmlns="http://www.w3.org/2000/svg" xmlns:xlink="http://www.w3.org/1999/xlink" x="0px" y="0px"
	 viewBox="0 0 512 512" style="enable-background:new 0 0 512 512;" xml:space="preserve">
<style type="text/css">
	.st0{fill:#F2F2F2;}
	.st1{fill:#F1F2F2;}
</style>
<g id="XMLID_18_">
	<g id="XMLID_46_">
		<g id="XMLID_49_">
			<path id="XMLID_52_" class="st0" d="M410.4,200.1c-10.4,0-20.7,1.8-30.5,5.4c-25.1-45.7-72.1-74-123.9-74
				c-51.7,0-98.8,28.2-123.9,74c-9.9-3.6-20.1-5.4-30.5-5.4c-49.8,0-90.3,40.5-90.3,90.3s40.5,90.3,90.3,90.3
				c11.8,0,23.4-2.3,34.2-6.8v-10c-10.7,5-22.3,7.7-34.2,7.7c-44.8,0-81.2-36.4-81.2-81.2s36.4-81.2,81.2-81.2
				c10.6,0,21,2.1,30.9,6.2l3.9,1.6l1.9-3.7c23-44.8,68.1-72.7,117.7-72.7s94.7,27.8,117.7,72.7l1.9,3.7l3.9-1.6
				c9.9-4.1,20.3-6.2,30.9-6.2c44.8,0,81.2,36.4,81.2,81.2s-36.4,81.2-81.2,81.2c-11.9,0-23.5-2.6-34.2-7.7v10
				c10.8,4.5,22.4,6.8,34.2,6.8c49.8,0,90.3-40.5,90.3-90.3S460.2,200.1,410.4,200.1z"/>
			<g id="XMLID_50_">
				<path id="XMLID_51_" class="st0" d="M410.4,194.6c-11,0.2-21.6,2-32,5.6c2.1,0.8,4.1,1.7,6.2,2.5c-26-46.5-75-76.7-128.6-76.7
					s-102.6,30.2-128.6,76.7c2.1-0.8,4.1-1.7,6.2-2.5C85.9,183.9,32.8,207,13.2,253.7C-5,297.2,12.4,348.9,53,372.9
					c25.6,15.1,56.8,17.2,84.3,6.3c2.3-0.9,4-2.7,4-5.3c0-3.3,0-6.7,0-10c0-4.5-4.6-6.4-8.2-4.7c-51.6,23.1-110.6-17.3-107-73.8
					c1.5-24.6,15.6-47.3,36.7-59.9c22.6-13.6,48.3-13,72.2-3.2c2.1,0.9,5.2-0.6,6.2-2.5C163.6,175.9,205.8,146,256,146
					s92.4,29.8,114.9,73.7c1,1.9,4.1,3.4,6.2,2.5c23.9-9.9,49.6-10.4,72.2,3.2c21.1,12.6,35.2,35.4,36.7,59.9
					c3.5,56.5-55.5,96.9-107,73.8c-3.7-1.6-8.2,0.2-8.2,4.7c0,3.3,0,6.7,0,10c0,2.6,1.7,4.4,4,5.3c43.6,17.2,94.2,0.3,118.2-40.1
					c22.4-37.9,15.4-87.8-16.5-118.1C458.5,204,435,194.9,410.4,194.6c-7-0.1-7.1,10.9,0,10.9c51.3,0.7,92.3,47.1,83.8,98.5
					c-8.9,54.1-66.3,84.3-116.5,64.6c1.3,1.8,2.7,3.5,4,5.3c0-3.3,0-6.7,0-10c-2.7,1.6-5.5,3.2-8.2,4.7c44.4,19.9,97.4,1,116.7-44.5
					c17.6-41.3-0.5-90.9-40.6-111.1c-24.1-12.2-50.8-11.6-75.5-1.4c2.1,0.8,4.1,1.7,6.2,2.5C356.1,166.9,309.9,135,256,135
					s-100.1,31.9-124.3,79.1c2.1-0.8,4.1-1.7,6.2-2.5C95,194,44.7,209.3,23.8,252.3c-19.7,40.5-4.5,90.6,34.4,113.2
					c24.8,14.4,54.4,14.8,80.3,3.2c-2.7-1.6-5.5-3.2-8.2-4.7c0,3.3,0,6.7,0,10c1.3-1.8,2.7-3.5,4-5.3c-54.8,21.6-116.7-17-117.6-77
					c-0.8-59.3,58.7-99.9,113.9-81c2.2,0.8,5.1-0.5,6.2-2.5C161,165,206.1,136.9,256,136.9s94.9,28,119.1,71.3
					c1.1,2,3.9,3.3,6.2,2.5c9.5-3.2,19-5,29.1-5.2C417.5,205.4,417.5,194.5,410.4,194.6z"/>
			</g>
		</g>
	</g>
</g>
<g id="XMLID_491_">
	<g id="XMLID_492_">
		<g id="XMLID_493_">
			<g id="XMLID_497_">
				<path id="XMLID_540_" class="st1" d="M256,383.6c-7.9,0-15.5-3.5-20.8-9.5c-2.9,1.8-6.1,2.8-9.5,2.8c-9.8,0-17.7-8-17.7-17.7
					c0-9.8,8-17.7,17.7-17.7c2,0,4.1,0.4,6,1.1c4.9-9,14.2-14.5,24.3-14.5c10.2,0,19.4,5.5,24.3,14.5c1.9-0.7,3.9-1.1,6-1.1
					c9.8,0,17.7,8,17.7,17.7c0,9.8-8,17.7-17.7,17.7c-3.4,0-6.6-1-9.5-2.8C271.5,380.1,263.9,383.6,256,383.6z M235.5,371.7l0.5,0.6
					c5,6,12.3,9.5,19.9,9.5s14.9-3.5,19.9-9.5l0.5-0.6l0.7,0.5c2.7,1.9,5.9,2.9,9.2,2.9c8.8,0,15.9-7.2,15.9-15.9
					s-7.2-15.9-15.9-15.9c-2.1,0-4.1,0.4-6.1,1.2l-0.8,0.3l-0.4-0.7c-4.5-8.8-13.4-14.3-23.1-14.3c-9.7,0-18.6,5.5-23.1,14.3
					l-0.4,0.7l-0.8-0.3c-1.9-0.8-4-1.2-6.1-1.2c-8.8,0-15.9,7.2-15.9,15.9s7.2,15.9,15.9,15.9c3.3,0,6.4-1,9.2-2.9L235.5,371.7z"/>
				<path id="XMLID_545_" class="st1" d="M256,385c-7.9,0-15.5-3.3-21.1-9.1c-2.8,1.6-6,2.4-9.2,2.4c-10.5,0-19.1-8.6-19.1-19.1
					s8.6-19.1,19.1-19.1c1.8,0,3.6,0.3,5.4,0.8c5.3-8.8,14.7-14.2,25-14.2c10.2,0,19.7,5.4,25,14.2c1.7-0.5,3.5-0.8,5.4-0.8
					c10.5,0,19.1,8.6,19.1,19.1s-8.6,19.1-19.1,19.1c-3.2,0-6.4-0.8-9.2-2.4C271.5,381.7,263.9,385,256,385z M235.8,369.8l1.3,1.6
					c4.7,5.7,11.6,9,18.9,9c7.3,0,14.1-3.3,18.9-9l1.3-1.6l1.7,1.2c2.5,1.7,5.4,2.7,8.4,2.7c8,0,14.6-6.5,14.6-14.6
					s-6.5-14.6-14.6-14.6c-1.9,0-3.8,0.4-5.5,1.1l-1.9,0.8l-1-1.9c-4.3-8.3-12.7-13.5-21.9-13.5c-9.2,0-17.6,5.2-21.9,13.5l-1,1.9
					l-1.9-0.8c-1.8-0.7-3.6-1.1-5.5-1.1c-8,0-14.6,6.5-14.6,14.6s6.5,14.6,14.6,14.6c3,0,5.9-0.9,8.4-2.7L235.8,369.8z"/>
			</g>
			<g id="XMLID_494_">
				<g id="XMLID_496_">
					<path id="XMLID_525_" class="st1" d="M256,382.5c-7.8-0.1-14.9-3.5-20-9.2c-0.3-0.3-0.9-0.4-1.3-0.2
						c-5.3,3.2-11.8,3.6-17.2,0.4c-4.7-2.7-7.9-7.6-8.3-13c-1.1-12.1,11-21,22.3-17.1c0.4,0.2,1-0.1,1.2-0.5
						c4.7-8.5,13.6-14,23.4-14c9.8,0,18.6,5.5,23.4,14c0.2,0.4,0.8,0.6,1.2,0.5c11.3-3.9,23.4,5,22.3,17.1c-0.5,5.4-3.7,10.3-8.3,13
						c-5.4,3.1-12,2.8-17.2-0.4c-0.4-0.2-1-0.2-1.3,0.2C270.9,379.1,263.8,382.4,256,382.5c-1.4,0-1.4,2.2,0,2.1
						c8.3-0.1,16-3.7,21.6-9.8c-0.4,0.1-0.9,0.1-1.3,0.2c8.9,5.5,20.9,2.8,26.2-6.3c5-8.5,2.4-19.6-5.6-25.1
						c-4.9-3.4-11.2-4.1-16.8-2.2c0.4,0.2,0.8,0.3,1.2,0.5c-5.1-9.1-14.7-15.1-25.2-15.1c-10.5,0-20.1,5.9-25.2,15.1
						c0.4-0.2,0.8-0.3,1.2-0.5c-9.7-3.3-20.5,1.7-24,11.4c-3.4,9.3,1.4,19.9,10.5,23.6c5.7,2.4,12.1,1.7,17.3-1.5
						c-0.4-0.1-0.9-0.1-1.3-0.2c5.5,6.2,13.3,9.8,21.6,9.8C257.4,384.7,257.4,382.5,256,382.5z"/>
					<path id="XMLID_526_" class="st1" d="M256,386.1C256,386.1,255.9,386.1,256,386.1c-8.1-0.1-15.5-3.3-21.3-8.9
						c-5.3,2.6-11.4,2.9-16.8,0.6c-9.8-4.1-14.8-15.5-11.3-25.4c3.5-9.7,13.9-15.2,23.9-12.8c5.6-8.7,15.2-14.1,25.4-14.1
						c10.2,0,19.8,5.4,25.4,14.1c5.6-1.4,11.5-0.3,16.2,2.9c8.8,6,11.4,17.9,6.1,26.9c-2.7,4.6-7.2,7.9-12.5,9.2
						c-4.7,1.2-9.7,0.6-13.9-1.5C271.6,382.8,264.1,386,256,386.1C256.1,386.1,256,386.1,256,386.1C256,386.1,256,386.1,256,386.1z
						 M239.1,374.5c4.7,4.2,10.6,6.6,16.9,6.6c6.3-0.1,12.2-2.4,16.9-6.6l-0.7-0.4l1.3-0.2c0.5-0.5,1-1,1.5-1.6c0.7-0.8,2.1-1,3-0.4
						c0.7,0.4,1.4,0.8,2.2,1.1l0.8-0.1l-0.3,0.3c4.3,1.7,9.1,1.4,13.1-0.9c4.3-2.5,7.2-7,7.6-11.9c0.4-5.2-1.7-10-5.8-13.2
						c-3.4-2.6-7.6-3.8-11.7-3.2l0.3,0.6l-1.1-0.4c-0.7,0.1-1.5,0.3-2.2,0.6c-1,0.4-2.3-0.1-2.9-1.1c-0.4-0.7-0.8-1.4-1.3-2
						l-0.8-0.3l0.5-0.2c-4.8-6.7-12.5-10.8-20.6-10.8c0,0,0,0,0,0c-8.1,0-15.7,4.1-20.6,10.8l0.5,0.2l-0.8,0.3
						c-0.4,0.7-0.9,1.3-1.3,2c-0.6,1-1.8,1.5-2.9,1.1c-0.7-0.2-1.5-0.4-2.2-0.6l-1.1,0.5l0.3-0.6c-4.1-0.6-8.3,0.6-11.7,3.2
						c-4.1,3.2-6.2,8-5.8,13.2c0.4,4.9,3.4,9.4,7.6,11.9c4,2.3,8.8,2.6,13.1,0.9l-0.3-0.3l0.8,0.1c0.7-0.3,1.5-0.7,2.2-1.1
						c1-0.6,2.3-0.4,3,0.4c0.5,0.6,1,1.1,1.5,1.6l1.2,0.2L239.1,374.5z"/>
				</g>
				<g id="XMLID_495_">
					<path id="XMLID_521_" class="st1" d="M234.8,372.4c5.3,6.4,12.8,10.4,21.2,10.5c8.4,0,15.9-4.1,21.2-10.4
						c-0.4,0.1-0.9,0.1-1.3,0.2c4.2,2.9,9,4.2,14,3.1c4.5-1,8.4-3.8,10.8-7.7c5-8.1,2.1-19.1-6.2-23.8c-4.8-2.7-10.4-2.7-15.4-0.6
						c0.4,0.2,0.8,0.3,1.2,0.5c-4.7-9.3-13.8-15.5-24.4-15.5c-10.6,0-19.7,6.3-24.4,15.5c0.4-0.2,0.8-0.3,1.2-0.5
						c-9-3.7-19.3,0-23,9.3c-3.5,8.9,1.4,19.1,10.4,22.3c5.5,1.9,11.2,0.6,15.9-2.6c1.1-0.8,0-2.7-1.1-1.9
						c-4.7,3.3-10.4,4.3-15.7,1.8c-4.7-2.3-8-7-8.4-12.2c-0.4-5.2,2-10.3,6.2-13.4c4.6-3.2,10.1-3.4,15.1-1.3c0.4,0.2,1-0.1,1.2-0.5
						c4.4-8.6,12.7-14.5,22.6-14.5c9.9,0,18.1,5.9,22.5,14.5c0.2,0.4,0.8,0.7,1.2,0.5c5-2.1,10.4-2,15,1.1c4.4,3,6.8,8.2,6.4,13.5
						c-0.4,5.1-3.6,9.8-8.2,12.1c-5.3,2.7-11.2,1.6-15.9-1.7c-0.4-0.3-1-0.2-1.3,0.2c-5,6-11.8,9.8-19.7,9.8
						c-7.9,0-14.8-3.9-19.7-9.8C235.4,369.9,233.9,371.4,234.8,372.4z"/>
					<path id="XMLID_522_" class="st1" d="M256,384.3C256,384.3,256,384.3,256,384.3c-7.9,0-15.3-3.3-20.9-9.4
						c-4.9,2.8-10.4,3.4-15.3,1.7c-4.7-1.6-8.6-5.2-10.7-9.8c-2.1-4.6-2.3-9.7-0.5-14.3c1.8-4.6,5.3-8.2,9.8-10.1
						c4.1-1.7,8.7-1.9,13-0.7c5.4-9,14.6-14.5,24.6-14.5c10,0,19.3,5.5,24.6,14.4c5.1-1.6,10.3-1.1,14.7,1.4
						c4.3,2.4,7.5,6.6,8.8,11.5c1.3,4.9,0.5,10-2.1,14.2c-2.6,4.3-6.9,7.3-11.7,8.3c-4.5,1-9.1,0.2-13.3-2.2
						C271.3,380.9,263.8,384.3,256,384.3z M235.7,369.2c0.6,0,1.2,0.3,1.7,0.9c5,6,11.6,9.3,18.6,9.3c0,0,0,0,0,0
						c6.2,0,12.1-2.6,16.8-7.3l-0.5-0.4l1.1-0.1c0.5-0.5,0.9-1,1.4-1.5c0.7-0.9,2.2-1.1,3.2-0.4c0.6,0.4,1.2,0.8,1.8,1.1l0.9-0.1
						l-0.3,0.4c4,2,8.3,2.1,12.1,0.2c4.2-2.1,7.1-6.3,7.5-11c0.4-4.8-1.8-9.5-5.8-12.2c-3.2-2.2-7-2.8-11-1.9l0.4,0.7l-1.2-0.5
						c-0.6,0.2-1.2,0.4-1.9,0.7c-1,0.4-2.4-0.1-3-1.1c-0.3-0.7-0.7-1.3-1.1-1.9l-0.7-0.3l0.4-0.2c-4.6-7.2-11.9-11.4-20-11.4
						c-8.1,0-15.4,4.2-20,11.4l0.4,0.2l-0.7,0.3c-0.4,0.6-0.7,1.3-1.1,1.9c-0.5,1-1.9,1.6-3,1.1c-0.6-0.3-1.2-0.5-1.9-0.7l-1.2,0.5
						l0.4-0.7c-4-1-7.9-0.3-11.1,2c-3.9,2.7-6,7.4-5.6,12.1c0.4,4.7,3.4,9,7.6,11.1c4.5,2.2,9.7,1.5,14.3-1.7
						C234.6,369.3,235.2,369.2,235.7,369.2z"/>
				</g>
			</g>
		</g>
	</g>
</g>
</svg>
