<?xml version="1.0" encoding="utf-8"?>
<!-- Generator: Adobe Illustrator 19.0.0, SVG Export Plug-In . SVG Version: 6.00 Build 0)  -->
<svg version="1.1" id="Layer_1" xmlns="http://www.w3.org/2000/svg" xmlns:xlink="http://www.w3.org/1999/xlink" x="0px" y="0px"
	 viewBox="0 0 512 512" style="enable-background:new 0 0 512 512;" xml:space="preserve">
<style type="text/css">
	.st0{fill-rule:evenodd;clip-rule:evenodd;fill:#F1F2F2;}
</style>
<g id="XMLID_10_">
	<g id="XMLID_11_">
		<polygon id="XMLID_20_" class="st0" points="238.3,86.4 261.9,86.4 470.2,86.4 496.2,48.3 6,48.3 6,52.5 29.2,86.4 		"/>
		<polygon id="XMLID_17_" class="st0" points="249.1,239.5 225.5,239.5 101.1,239.5 118.4,264.9 225.5,264.9 249.1,264.9 
			355.4,264.9 372.7,239.5 		"/>
		<polygon id="XMLID_16_" class="st0" points="282.2,118.8 81.3,118.8 98.7,144.2 282.2,144.2 305.8,144.2 488.6,144.2 506,118.8 
			305.8,118.8 		"/>
		<polygon id="XMLID_15_" class="st0" points="173.9,414.2 150.3,414.2 127.9,414.2 161.8,463.7 195.6,414.2 		"/>
		<polygon id="XMLID_14_" class="st0" points="217.9,381.9 247.7,381.9 265.1,356.5 217.9,356.5 194.3,356.5 146.4,356.5 
			163.8,381.9 194.3,381.9 		"/>
		<polygon id="XMLID_13_" class="st0" points="261.9,176.6 238.3,176.6 62.8,176.6 80.2,201.9 238.3,201.9 261.9,201.9 419.2,201.9 
			436.5,176.6 		"/>
		<polygon id="XMLID_12_" class="st0" points="261.9,324.1 317.1,324.1 334.5,298.7 261.9,298.7 238.3,298.7 164.8,298.7 
			182.2,324.1 238.3,324.1 		"/>
	</g>
</g>
</svg>
