<?xml version="1.0" encoding="utf-8"?>
<!-- Generator: Adobe Illustrator 19.0.0, SVG Export Plug-In . SVG Version: 6.00 Build 0)  -->
<svg version="1.1" id="Layer_1" xmlns="http://www.w3.org/2000/svg" xmlns:xlink="http://www.w3.org/1999/xlink" x="0px" y="0px"
	 viewBox="0 0 512 512" style="enable-background:new 0 0 512 512;" xml:space="preserve">
<style type="text/css">
	.st0{fill:#FFF200;}
</style>
<g id="XMLID_217_">
	<path id="XMLID_240_" class="st0" d="M251.7,506C151,506,59.6,446.4,19,354.1L6,324.7l29.4,13c29.2,12.8,60.2,19.4,92.3,19.4
		C254.2,357,357,254.2,357,127.7c0-32.1-6.5-63.2-19.4-92.3L324.7,6l29.4,13C446.4,59.6,506,151,506,251.7
		C506,391.9,391.9,506,251.7,506z M56.4,371.9C97.7,439,171.4,481,251.7,481C378.2,481,481,378.2,481,251.7
		c0-80.3-42-154-109.2-195.3c6.7,23,10.1,46.9,10.1,71.3C382,267.9,267.9,382,127.7,382C103.3,382,79.4,378.6,56.4,371.9z"/>
</g>
</svg>
