<?xml version="1.0" encoding="utf-8"?>
<!-- Generator: Adobe Illustrator 19.0.0, SVG Export Plug-In . SVG Version: 6.00 Build 0)  -->
<svg version="1.1" id="Layer_1" xmlns="http://www.w3.org/2000/svg" xmlns:xlink="http://www.w3.org/1999/xlink" x="0px" y="0px"
	 viewBox="0 0 512 512" style="enable-background:new 0 0 512 512;" xml:space="preserve">
<style type="text/css">
	.st0{fill:#F2F2F2;}
</style>
<g id="XMLID_173_">
	<g id="XMLID_174_">
		<path id="XMLID_178_" class="st0" d="M256.1,415.8c-40.4,0-78.8-17.6-106-48.5c-14.6,9.3-31.2,14.2-48.4,14.2
			c-49.8,0-90.3-40.5-90.3-90.3s40.5-90.3,90.3-90.3c10.4,0,20.6,1.8,30.5,5.4c25.1-45.7,72.2-74,123.9-74s98.8,28.2,123.9,74
			c9.9-3.6,20.1-5.4,30.5-5.4c49.8,0,90.3,40.5,90.3,90.3s-40.5,90.3-90.3,90.3c-17.2,0-33.8-4.9-48.4-14.2
			C334.9,398.1,296.5,415.8,256.1,415.8z M151.8,355l2.7,3.2C180,389,217,406.7,256.1,406.7s76.1-17.6,101.6-48.4l2.7-3.2l3.4,2.4
			c13.8,9.7,30,14.9,46.6,14.9c44.8,0,81.2-36.4,81.2-81.2S455.2,210,410.5,210c-10.6,0-21,2.1-30.9,6.2l-3.9,1.6l-1.9-3.7
			c-22.9-44.8-68-72.6-117.7-72.6c-49.6,0-94.7,27.8-117.7,72.7l-1.9,3.7l-3.9-1.6c-9.9-4.1-20.3-6.2-30.9-6.2
			c-44.8,0-81.2,36.4-81.2,81.2s36.4,81.2,81.2,81.2c16.7,0,32.8-5.1,46.6-14.9L151.8,355z"/>
		<g id="XMLID_175_">
			<path id="XMLID_177_" class="st0" d="M256.1,410.3c-39.5-0.4-75.8-17.6-102.1-46.9c-1.6-1.8-4.7-2.1-6.6-0.9
				c-26.8,16.5-60.3,18.1-87.7,2.3c-23.8-13.7-40-38.6-42.4-66c-5.4-61.7,55.8-107.1,113.6-87.3c2.2,0.8,5.1-0.5,6.2-2.5
				c24.2-43.2,69.3-71.3,119.1-71.3c49.9,0,94.9,28,119.1,71.3c1.1,2,3.9,3.3,6.2,2.5c57.7-19.7,119,25.5,113.6,87.3
				c-2.4,27.4-18.7,52.3-42.4,66c-27.5,15.8-61,14.2-87.7-2.3c-2-1.2-5.1-0.9-6.6,0.9C331.9,392.7,295.6,409.9,256.1,410.3
				c-7,0.1-7.1,11,0,10.9c42.3-0.4,81.7-18.7,109.8-50.1c-2.2,0.3-4.4,0.6-6.6,0.9c45.5,28,106.3,14.2,133.7-32.2
				c25.5-43.1,12.4-99.7-28.8-127.9c-25.1-17.2-57.1-20.8-85.7-11c2.1,0.8,4.1,1.7,6.2,2.5c-26-46.5-74.9-76.7-128.6-76.7
				c-53.6,0-102.5,30.2-128.6,76.7c2.1-0.8,4.1-1.7,6.2-2.5c-49.6-17-104.4,8.8-122.2,58.2C-5.6,306.5,18.8,360.2,65,379.6
				c28.8,12.1,61.5,8.7,87.9-7.6c-2.2-0.3-4.4-0.6-6.6-0.9c28.2,31.4,67.6,49.7,109.8,50.1C263.1,421.3,263.2,410.4,256.1,410.3z"/>
			<path id="XMLID_176_" class="st0" d="M147.9,358.9c27,32.6,65.3,53.2,108.2,53.2c42.8,0,81.2-20.7,108.2-53.2
				c-2.2,0.3-4.4,0.6-6.6,0.9c21.1,14.9,45.9,21.6,71.5,16c22.8-4.9,42.9-19.5,55.1-39.2c25.6-41.3,10.8-97.3-31.5-121
				c-24.7-13.8-52.8-13.7-78.6-3.1c2.1,0.8,4.1,1.7,6.2,2.5c-24.2-47.2-70.4-79.1-124.3-79.1S156,167.8,131.8,215
				c2.1-0.8,4.1-1.7,6.2-2.5c-45.7-18.9-98.4,0.2-117,47.3c-17.9,45.3,7,97.5,52.8,113.4c27.9,9.7,57.1,3.3,80.8-13.4
				c5.7-4,0.2-13.5-5.5-9.5c-23.7,16.7-53.1,22.2-79.9,9.2c-24-11.6-40.8-35.5-42.9-62.1c-2.1-26.5,9.9-52.7,31.7-68
				c23.3-16.5,51.3-17.1,77.1-6.4c2.1,0.9,5.2-0.6,6.2-2.5c22.5-43.8,64.6-73.7,114.9-73.7c50.2,0,92.4,29.8,114.8,73.7
				c1,1.9,4.1,3.4,6.2,2.5c25.5-10.5,53-10.2,76.2,5.7c22.3,15.3,34.7,41.8,32.6,68.7c-2.1,26.2-18.4,49.8-41.8,61.5
				c-27.1,13.6-56.9,8.3-81-8.7c-1.8-1.3-5.2-0.9-6.6,0.9c-25.2,30.4-60.3,50-100.4,50s-75.2-19.6-100.4-50
				C151.2,345.7,143.4,353.5,147.9,358.9z"/>
		</g>
	</g>
</g>
</svg>
