<?xml version="1.0" encoding="utf-8"?>
<!-- Generator: Adobe Illustrator 19.0.0, SVG Export Plug-In . SVG Version: 6.00 Build 0)  -->
<svg version="1.1" id="Layer_1" xmlns="http://www.w3.org/2000/svg" xmlns:xlink="http://www.w3.org/1999/xlink" x="0px" y="0px"
	 viewBox="0 0 512 512" style="enable-background:new 0 0 512 512;" xml:space="preserve">
<style type="text/css">
	.st0{fill:#FFF200;}
</style>
<g id="XMLID_21_">
	
		<rect id="XMLID_73_" x="98.8" y="355.8" transform="matrix(-0.7071 -0.7071 0.7071 -0.7071 -93.8457 762.9484)" class="st0" width="24.6" height="90.1"/>
	<rect id="XMLID_72_" x="243.7" y="415.9" class="st0" width="24.6" height="90.1"/>
	<rect id="XMLID_71_" x="243.7" y="6" class="st0" width="24.6" height="90.1"/>
	
		<rect id="XMLID_70_" x="388.6" y="66" transform="matrix(0.7071 0.7071 -0.7071 0.7071 195.9753 -250.95)" class="st0" width="24.6" height="90.1"/>
	
		<rect id="XMLID_69_" x="66" y="98.8" transform="matrix(0.7071 0.7071 -0.7071 0.7071 111.0884 -46.0148)" class="st0" width="90.1" height="24.6"/>
	<rect id="XMLID_68_" x="6" y="243.7" class="st0" width="90.1" height="24.6"/>
	<rect id="XMLID_65_" x="415.9" y="243.7" class="st0" width="90.1" height="24.6"/>
	
		<rect id="XMLID_64_" x="355.8" y="388.6" transform="matrix(-0.7071 -0.7071 0.7071 -0.7071 400.9116 967.8836)" class="st0" width="90.1" height="24.6"/>
	<path id="XMLID_24_" class="st0" d="M256,117.7c-77.1,0-139.9,62.7-139.9,139.9S178.9,397.4,256,397.4s139.9-62.7,139.9-139.9
		S333.1,117.7,256,117.7z M256,372.8c-63.6,0-115.3-51.7-115.3-115.3S192.4,142.2,256,142.2s115.3,51.7,115.3,115.3
		S319.6,372.8,256,372.8z"/>
</g>
</svg>
