<?xml version="1.0" encoding="utf-8"?>
<!-- Generator: Adobe Illustrator 19.0.0, SVG Export Plug-In . SVG Version: 6.00 Build 0)  -->
<svg version="1.1" id="Layer_1" xmlns="http://www.w3.org/2000/svg" xmlns:xlink="http://www.w3.org/1999/xlink" x="0px" y="0px"
	 viewBox="0 0 512 512" style="enable-background:new 0 0 512 512;" xml:space="preserve">
<style type="text/css">
	.st0{fill:#FFF200;}
	.st1{fill:#F1F2F2;}
	.st2{fill-rule:evenodd;clip-rule:evenodd;fill:#00AEEF;}
</style>
<g id="XMLID_243_">
	<g id="XMLID_263_">
		<rect id="XMLID_269_" x="141" y="5.6" class="st0" width="13.9" height="51.1"/>
		
			<rect id="XMLID_268_" x="223.1" y="39.6" transform="matrix(0.7071 0.7071 -0.7071 0.7071 113.4376 -143.6061)" class="st0" width="13.9" height="51.1"/>
		
			<rect id="XMLID_267_" x="40.3" y="58.2" transform="matrix(0.7071 0.7071 -0.7071 0.7071 65.3387 -27.4852)" class="st0" width="51.1" height="13.9"/>
		<rect id="XMLID_266_" x="6.3" y="140.3" class="st0" width="51.1" height="13.9"/>
		<g id="XMLID_264_">
			<path id="XMLID_265_" class="st0" d="M102.9,195.3c-12.5-11.9-20.3-28.7-20.3-47.2c0-36,29.3-65.3,65.3-65.3
				c32.8,0,60,24.3,64.6,55.8c4.3-1.8,8.8-3.3,13.3-4.6C219.2,97,186.8,68.8,148,68.8c-43.7,0-79.2,35.5-79.2,79.2
				c0,19.5,7.1,37.3,18.7,51.1C92.5,197.5,97.6,196.2,102.9,195.3z"/>
		</g>
	</g>
</g>
<g id="XMLID_18_">
	<g id="XMLID_46_">
		<g id="XMLID_49_">
			<path id="XMLID_52_" class="st1" d="M410.4,200.1c-10.4,0-20.7,1.8-30.5,5.4c-25.1-45.7-72.1-74-123.9-74
				c-51.7,0-98.8,28.2-123.9,74c-9.9-3.6-20.1-5.4-30.5-5.4c-49.8,0-90.3,40.5-90.3,90.3s40.5,90.3,90.3,90.3
				c11.8,0,23.4-2.3,34.2-6.8v-10c-10.7,5-22.3,7.7-34.2,7.7c-44.8,0-81.2-36.4-81.2-81.2s36.4-81.2,81.2-81.2
				c10.6,0,21,2.1,30.9,6.2l3.9,1.6l1.9-3.7c23-44.8,68.1-72.7,117.7-72.7c49.6,0,94.7,27.8,117.7,72.7l1.9,3.7l3.9-1.6
				c9.9-4.1,20.3-6.2,30.9-6.2c44.8,0,81.2,36.4,81.2,81.2s-36.4,81.2-81.2,81.2c-11.9,0-23.5-2.6-34.2-7.7v10
				c10.8,4.5,22.4,6.8,34.2,6.8c49.8,0,90.3-40.5,90.3-90.3S460.2,200.1,410.4,200.1z"/>
			<g id="XMLID_50_">
				<path id="XMLID_51_" class="st1" d="M410.4,194.6c-11,0.2-21.6,2-32,5.6c2.1,0.8,4.1,1.7,6.2,2.5c-26-46.5-75-76.7-128.6-76.7
					c-53.6,0-102.6,30.2-128.6,76.7c2.1-0.8,4.1-1.7,6.2-2.5c-47.7-16.3-100.8,6.8-120.4,53.5C-5,297.2,12.4,348.9,53,372.9
					c25.6,15.1,56.8,17.2,84.3,6.3c2.3-0.9,4-2.7,4-5.3c0-3.3,0-6.7,0-10c0-4.5-4.6-6.4-8.2-4.7c-51.6,23.1-110.6-17.3-107-73.8
					c1.5-24.6,15.6-47.3,36.7-59.9c22.6-13.6,48.3-13,72.2-3.2c2.1,0.9,5.2-0.6,6.2-2.5C163.6,175.9,205.8,146,256,146
					c50.2,0,92.4,29.8,114.9,73.7c1,1.9,4.1,3.4,6.2,2.5c23.9-9.9,49.6-10.4,72.2,3.2c21.1,12.6,35.2,35.4,36.7,59.9
					c3.5,56.5-55.5,96.9-107,73.8c-3.7-1.6-8.2,0.2-8.2,4.7c0,3.3,0,6.7,0,10c0,2.6,1.7,4.4,4,5.3c43.6,17.2,94.2,0.3,118.2-40.1
					c22.4-37.9,15.4-87.8-16.5-118.1C458.5,204,435,194.9,410.4,194.6c-7-0.1-7.1,10.9,0,10.9c51.3,0.7,92.3,47.1,83.8,98.5
					c-8.9,54.1-66.3,84.3-116.5,64.6c1.3,1.8,2.7,3.5,4,5.3c0-3.3,0-6.7,0-10c-2.7,1.6-5.5,3.2-8.2,4.7c44.4,19.9,97.4,1,116.7-44.5
					c17.6-41.3-0.5-90.9-40.6-111.1c-24.1-12.2-50.8-11.6-75.5-1.4c2.1,0.8,4.1,1.7,6.2,2.5c-24.2-47.2-70.4-79.1-124.3-79.1
					c-53.9,0-100.1,31.9-124.3,79.1c2.1-0.8,4.1-1.7,6.2-2.5C95,194,44.7,209.3,23.8,252.3c-19.7,40.5-4.5,90.6,34.4,113.2
					c24.8,14.4,54.4,14.8,80.3,3.2c-2.7-1.6-5.5-3.2-8.2-4.7c0,3.3,0,6.7,0,10c1.3-1.8,2.7-3.5,4-5.3c-54.8,21.6-116.7-17-117.6-77
					c-0.8-59.3,58.7-99.9,113.9-81c2.2,0.8,5.1-0.5,6.2-2.5c24.2-43.2,69.3-71.3,119.2-71.3c49.9,0,94.9,28,119.1,71.3
					c1.1,2,3.9,3.3,6.2,2.5c9.5-3.2,19-5,29.1-5.2C417.5,205.4,417.5,194.5,410.4,194.6z"/>
			</g>
		</g>
	</g>
</g>
<path id="XMLID_114_" class="st2" d="M181.3,365.4c3.5,9,13.7,13.4,22.7,9.8c9-3.5,13.4-13.7,9.8-22.7c-3.5-9-29.1-26.1-29.1-26.1
	S177.8,356.4,181.3,365.4z"/>
<g id="XMLID_144_">
	<path id="XMLID_182_" class="st0" d="M278.1,387l-62.9-77.8l28.3-8.2l-9.7-59.9l62.9,77.8l-28.3,8.2L278.1,387z M226.9,312.8
		l40.5,50.1l-6.6-40.7l24.3-7l-40.5-50.1l6.6,40.7L226.9,312.8z"/>
</g>
<path id="XMLID_1_" class="st2" d="M299.3,365.4c3.5,9,13.7,13.4,22.7,9.8c9-3.5,13.4-13.7,9.8-22.7c-3.5-9-29.1-26.1-29.1-26.1
	S295.8,356.4,299.3,365.4z"/>
</svg>
